<svg width="36" height="36" viewBox="0 0 36 36" fill="none" xmlns="http://www.w3.org/2000/svg">
<path d="M17.91 4.5C14.625 4.545 12 7.215 12 10.5C11.91 12.96 11.715 15.705 10.545 17.385C14.565 19.83 18 19.5 18 19.5C18 19.5 21.435 19.83 25.455 17.385C24.18 15.33 23.91 12.81 24 10.5C24 7.185 21.315 4.5 18 4.5H17.91ZM13.29 19.98C9 20.895 6 23.025 6 25.5V31.5H18L13.5 25.5H9.75M18 31.5L20.67 20.715C20.67 20.715 19.5 21 18 21C16.5 21 15.33 20.715 15.33 20.715M18 31.5H30V25.5C30 23.025 27 20.895 22.71 19.98L26.25 25.5H22.5L18 31.5Z" fill="black"/>
</svg>
