<svg width="27" height="29" viewBox="0 0 27 29" fill="none" xmlns="http://www.w3.org/2000/svg">
<path d="M13.5 8.45833C13.5 7.17645 13.0259 5.94708 12.182 5.04065C11.3381 4.13422 10.1935 3.625 9 3.625H2.25V21.75H10.125C11.0201 21.75 11.8786 22.1319 12.5115 22.8117C13.1444 23.4916 13.5 24.4136 13.5 25.375M13.5 8.45833V25.375M13.5 8.45833C13.5 7.17645 13.9741 5.94708 14.818 5.04065C15.6619 4.13422 16.8065 3.625 18 3.625H24.75V21.75H16.875C15.9799 21.75 15.1214 22.1319 14.4885 22.8117C13.8556 23.4916 13.5 24.4136 13.5 25.375" stroke="#1E1E1E" stroke-width="4" stroke-linecap="round" stroke-linejoin="round"/>
</svg>
