<svg width="29" height="41" viewBox="0 0 29 41" fill="none" xmlns="http://www.w3.org/2000/svg">
<path d="M6.04199 25.625H4.83366C4.19272 25.625 3.57803 25.265 3.12482 24.6243C2.6716 23.9836 2.41699 23.1145 2.41699 22.2084V6.83335C2.41699 5.9272 2.6716 5.05815 3.12482 4.41741C3.57803 3.77666 4.19272 3.41669 4.83366 3.41669H15.7087C16.3496 3.41669 16.9643 3.77666 17.4175 4.41741C17.8707 5.05815 18.1253 5.9272 18.1253 6.83335V8.54169M13.292 15.375H24.167C25.5017 15.375 26.5837 16.9047 26.5837 18.7917V34.1667C26.5837 36.0537 25.5017 37.5834 24.167 37.5834H13.292C11.9573 37.5834 10.8753 36.0537 10.8753 34.1667V18.7917C10.8753 16.9047 11.9573 15.375 13.292 15.375Z" stroke="#1E1E1E" stroke-width="4" stroke-linecap="round" stroke-linejoin="round"/>
</svg>
