<svg width="36" height="32" viewBox="0 0 36 32" fill="none" xmlns="http://www.w3.org/2000/svg">
<path d="M13.635 12C13.9877 11.1089 14.6837 10.3575 15.5999 9.87886C16.5161 9.40023 17.5933 9.22527 18.6408 9.38497C19.6882 9.54467 20.6382 10.0287 21.3226 10.7514C22.007 11.4741 22.3816 12.3887 22.38 13.3334C22.38 16 17.88 17.3334 17.88 17.3334M18 22.6667H18.015M33 16C33 23.3638 26.2843 29.3334 18 29.3334C9.71573 29.3334 3 23.3638 3 16C3 8.63622 9.71573 2.66669 18 2.66669C26.2843 2.66669 33 8.63622 33 16Z" stroke="#1E1E1E" stroke-width="4" stroke-linecap="round" stroke-linejoin="round"/>
</svg>
