<svg width="34" height="36" viewBox="0 0 34 36" fill="none" xmlns="http://www.w3.org/2000/svg">
<path d="M13.1044 33L12.5377 28.2C12.2308 28.075 11.9415 27.925 11.67 27.75C11.3985 27.575 11.1328 27.3875 10.8731 27.1875L6.65853 29.0625L2.7627 21.9375L6.41061 19.0125C6.387 18.8375 6.3752 18.6688 6.3752 18.5063V17.4938C6.3752 17.3313 6.387 17.1625 6.41061 16.9875L2.7627 14.0625L6.65853 6.9375L10.8731 8.8125C11.1328 8.6125 11.4044 8.425 11.6877 8.25C11.971 8.075 12.2544 7.925 12.5377 7.8L13.1044 3H20.896L21.4627 7.8C21.7696 7.925 22.0589 8.075 22.3304 8.25C22.6019 8.425 22.8676 8.6125 23.1273 8.8125L27.3419 6.9375L31.2377 14.0625L27.5898 16.9875C27.6134 17.1625 27.6252 17.3313 27.6252 17.4938V18.5063C27.6252 18.6688 27.6016 18.8375 27.5544 19.0125L31.2023 21.9375L27.3064 29.0625L23.1273 27.1875C22.8676 27.3875 22.596 27.575 22.3127 27.75C22.0294 27.925 21.746 28.075 21.4627 28.2L20.896 33H13.1044ZM17.071 23.25C18.4405 23.25 19.6092 22.7375 20.5773 21.7125C21.5453 20.6875 22.0294 19.45 22.0294 18C22.0294 16.55 21.5453 15.3125 20.5773 14.2875C19.6092 13.2625 18.4405 12.75 17.071 12.75C15.678 12.75 14.5033 13.2625 13.5471 14.2875C12.5908 15.3125 12.1127 16.55 12.1127 18C12.1127 19.45 12.5908 20.6875 13.5471 21.7125C14.5033 22.7375 15.678 23.25 17.071 23.25Z" fill="#1D1B20"/>
</svg>
