<svg width="48" height="43" viewBox="0 0 48 43" fill="none" xmlns="http://www.w3.org/2000/svg">
<path d="M18.4994 39.4167L17.6994 33.6833C17.2661 33.534 16.8577 33.3549 16.4744 33.1458C16.0911 32.9368 15.7161 32.7128 15.3494 32.474L9.39941 34.7135L3.89941 26.2031L9.04941 22.7094C9.01608 22.5003 8.99941 22.2988 8.99941 22.1047V20.8953C8.99941 20.7012 9.01608 20.4996 9.04941 20.2906L3.89941 16.7969L9.39941 8.28645L15.3494 10.526C15.7161 10.2871 16.0994 10.0632 16.4994 9.85416C16.8994 9.64513 17.2994 9.46597 17.6994 9.31666L18.4994 3.58333H29.4994L30.2994 9.31666C30.7327 9.46597 31.1411 9.64513 31.5244 9.85416C31.9078 10.0632 32.2828 10.2871 32.6494 10.526L38.5994 8.28645L44.0994 16.7969L38.9494 20.2906C38.9827 20.4996 38.9994 20.7012 38.9994 20.8953V22.1047C38.9994 22.2988 38.9661 22.5003 38.8994 22.7094L44.0494 26.2031L38.5494 34.7135L32.6494 32.474C32.2828 32.7128 31.8994 32.9368 31.4994 33.1458C31.0994 33.3549 30.6994 33.534 30.2994 33.6833L29.4994 39.4167H18.4994ZM24.0994 27.7708C26.0328 27.7708 27.6828 27.1587 29.0494 25.9344C30.4161 24.7101 31.0994 23.2319 31.0994 21.5C31.0994 19.768 30.4161 18.2899 29.0494 17.0656C27.6828 15.8413 26.0328 15.2292 24.0994 15.2292C22.1327 15.2292 20.4744 15.8413 19.1244 17.0656C17.7744 18.2899 17.0994 19.768 17.0994 21.5C17.0994 23.2319 17.7744 24.7101 19.1244 25.9344C20.4744 27.1587 22.1327 27.7708 24.0994 27.7708Z" fill="#1D1B20"/>
</svg>
